# xmcd CD database file
#
# Track frame offsets:
#	150
#	18432
#	48232
#	75022
#	94940
#	122630
#	159370
#	191895
#	229947
#	251402
#
# Disc length: 3636 seconds
#
# Revision: 0
# Processed by: cddbd v1.5.2PL0 Copyright (c) Steve Scherf et al.
# Submitted via: CDex 1.77
#
DISCID=700e320a
DTITLE=Stafford James - Le Gecko
DYEAR=2001
DGENRE=Jazz
TTITLE0=Au Cap Benat
TTITLE1=Le Gecko
TTITLE2=Gaia
TTITLE3=Cristallissime
TTITLE4=Changing World
TTITLE5=Good News a Comin'
TTITLE6=When and How
TTITLE7=Espoir
TTITLE8=Kisses and Rainbows
TTITLE9=Tongue in Cheek
EXTD=YEAR: 2001
EXTT0=
EXTT1=
EXTT2=
EXTT3=
EXTT4=
EXTT5=
EXTT6=
EXTT7=
EXTT8=
EXTT9=
PLAYORDER=
